<svg width="24" height="24" viewBox="0 0 24 24" fill="none" xmlns="http://www.w3.org/2000/svg">
<path d="M6.9252 22L5.7502 20.825L7.9002 18.7C6.08353 18.8166 4.4502 18.2333 3.0002 16.95C1.5502 15.6666 0.825195 13.9916 0.825195 11.925C0.825195 9.95828 1.51686 8.28328 2.9002 6.89995C4.28353 5.51662 5.95853 4.82495 7.9252 4.82495H11.0252V6.47495H7.9252C6.4252 6.47495 5.14186 7.00828 4.0752 8.07495C3.00853 9.14162 2.4752 10.425 2.4752 11.925C2.4752 13.475 3.00853 14.7375 4.0752 15.7125C5.14186 16.6875 6.4502 17.1583 8.0002 17.125L5.7502 14.875L6.9252 13.725L11.0752 17.85L6.9252 22ZM12.9752 21.025V13.825H17.5752H22.1752V21.025H12.9752ZM14.6752 19.325H20.4752V15.525H14.6752V19.325Z" fill="#005595"/>
<path d="M21 3.205L20.295 2.5L17.5 5.295L14.705 2.5L14 3.205L16.795 6L14 8.795L14.705 9.5L17.5 6.705L20.295 9.5L21 8.795L18.205 6L21 3.205Z" fill="#005595" stroke="#005595"/>
</svg>
